{
  "source": "C:\\Users\\Peter\\Desktop\\stuff\\MIUN\\quantitative_research\\video_compression\\videos\\BVI-HD\\RockWater_1920x1080_30fps.mp4",
  "output": "C:\\Users\\Peter\\Desktop\\stuff\\MIUN\\quantitative_research\\video_compression\\compressed_videos\\BVI-HD\\av1\\12\\RockWater_1920x1080_30fps_av1.mkv",
  "codec": "av1",
  "ok": "Input #0, mov,mp4,m4a,3gp,3g2,mj2, from 'C:\\Users\\Peter\\Desktop\\stuff\\MIUN\\quantitative_research\\video_compression\\videos\\BVI-HD\\RockWater_1920x1080_30fps.mp4':\n  Metadata:\n    major_brand     : isom\n    minor_version   : 512\n    compatible_brands: isomiso2avc1mp41\n    encoder         : Lavf54.28.101\n  Duration: 00:00:05.00, start: 0.000000, bitrate: 245943 kb/s\n  Stream #0:0[0x1](und): Video: h264 (High 4:4:4 Predictive) (avc1 / 0x31637661), yuv420p(progressive), 1920x1080, 245940 kb/s, 30 fps, 30 tbr, 30 tbn (default)\n    Metadata:\n      handler_name    : VideoHandler\n      vendor_id       : [0][0][0][0]\n[out#0/matroska @ 000001d5e4e50c40] Codec AVOption b:a (set bitrate (in bits/s)) has not been used for any stream. The most likely reason is either wrong type (e.g. a video option with no video streams) or that it is a private option of some decoder which was not actually used for any stream.\nStream mapping:\n  Stream #0:0 -> #0:0 (h264 (native) -> av1 (libsvtav1))\nPress [q] to stop, [?] for help\nSvt[info]: -------------------------------------------\nSvt[info]: SVT [version]:\tSVT-AV1 Encoder Lib v3.1.0-19-g6ecfe8ec\nSvt[info]: SVT [build]  :\tGCC 15.2.0\t 64 bit\nSvt[info]: LIB Build date: Aug 17 2025 11:37:13\nSvt[info]: -------------------------------------------\nSvt[info]: Level of Parallelism: 5\nSvt[info]: Number of PPCS 93\nSvt[info]: [asm level on system : up to avx2]\nSvt[info]: [asm level selected : up to avx2]\nSvt[info]: -------------------------------------------\nSvt[info]: SVT [config]: main profile\ttier (auto)\tlevel (auto)\nSvt[info]: SVT [config]: width / height / fps numerator / fps denominator \t\t: 1920 / 1080 / 30 / 1\nSvt[info]: SVT [config]: bit-depth / color format \t\t\t\t\t: 8 / YUV420\nSvt[info]: SVT [config]: preset / tune / pred struct \t\t\t\t\t: 4 / PSNR / random access\nSvt[info]: SVT [config]: gop size / mini-gop size / key-frame type \t\t\t: 161 / 16 / key frame\nSvt[info]: SVT [config]: BRC mode / target bitrate (kbps)\t\t\t\t: VBR / 12000 \nSvt[info]: SVT [config]: AQ mode / Variance Boost \t\t\t\t\t: 2 / 0\nSvt[info]: SVT [config]: sharpness / luminance-based QP bias \t\t\t\t: 0 / 0\nSvt[info]: SVT [config]: QP scale compress strength \t\t\t\t\t: 0\nSvt[info]: -------------------------------------------\nOutput #0, matroska, to 'C:\\Users\\Peter\\Desktop\\stuff\\MIUN\\quantitative_research\\video_compression\\compressed_videos\\BVI-HD\\av1\\12\\RockWater_1920x1080_30fps_av1.mkv':\n  Metadata:\n    major_brand     : isom\n    minor_version   : 512\n    compatible_brands: isomiso2avc1mp41\n    encoder         : Lavf62.3.100\n  Stream #0:0(und): Video: av1 (AV01 / 0x31305641), yuv420p(tv, progressive), 1920x1080, q=2-31, 12000 kb/s, 30 fps, 1k tbn (default)\n    Metadata:\n      encoder         : Lavc62.11.100 libsvtav1\n      handler_name    : VideoHandler\n      vendor_id       : [0][0][0][0]\n    Side data:\n      cpb: bitrate max/min/avg: 0/0/12000000 buffer size: 12000000 vbv_delay: N/A\nframe=    0 fps=0.0 q=0.0 size=       0KiB time=N/A bitrate=N/A speed=N/A elapsed=0:00:01.05    \nframe=    0 fps=0.0 q=0.0 size=       0KiB time=N/A bitrate=N/A speed=N/A elapsed=0:00:01.86    \nframe=    0 fps=0.0 q=0.0 size=       0KiB time=N/A bitrate=N/A speed=N/A elapsed=0:00:02.51    \nframe=    0 fps=0.0 q=0.0 size=       0KiB time=N/A bitrate=N/A speed=N/A elapsed=0:00:03.18    \nframe=    0 fps=0.0 q=0.0 size=       0KiB time=N/A bitrate=N/A speed=N/A elapsed=0:00:03.81    \nframe=    0 fps=0.0 q=0.0 size=       0KiB time=N/A bitrate=N/A speed=N/A elapsed=0:00:04.32    \nframe=    1 fps=0.2 q=14.0 size=       1KiB time=00:00:00.00 bitrate=N/A speed=   0x elapsed=0:00:04.84    \nframe=    1 fps=0.2 q=14.0 size=       1KiB time=00:00:00.00 bitrate=N/A speed=   0x elapsed=0:00:05.36    \nframe=    1 fps=0.2 q=14.0 size=       1KiB time=00:00:00.00 bitrate=N/A speed=   0x elapsed=0:00:05.90    \nframe=    4 fps=0.6 q=25.0 size=       1KiB time=00:00:00.10 bitrate=  57.0kbits/s speed=0.0155x elapsed=0:00:06.46    \nframe=    6 fps=0.9 q=24.0 size=       1KiB time=00:00:00.16 bitrate=  34.2kbits/s speed=0.0238x elapsed=0:00:07.01    \nframe=    9 fps=1.2 q=20.0 size=       1KiB time=00:00:00.26 bitrate=  21.4kbits/s speed=0.0353x elapsed=0:00:07.55    \nframe=   11 fps=1.4 q=21.0 size=       1KiB time=00:00:00.33 bitrate=  17.1kbits/s speed=0.0412x elapsed=0:00:08.08    \nframe=   17 fps=2.0 q=15.0 size=       1KiB time=00:00:00.53 bitrate=  10.7kbits/s speed=0.062x elapsed=0:00:08.60    \nframe=   20 fps=2.2 q=26.0 size=       1KiB time=00:00:00.63 bitrate=   9.0kbits/s speed=0.0693x elapsed=0:00:09.14    \nframe=   23 fps=2.4 q=24.0 size=       1KiB time=00:00:00.73 bitrate=   7.8kbits/s speed=0.0758x elapsed=0:00:09.67    \nframe=   26 fps=2.5 q=26.0 size=       1KiB time=00:00:00.80 bitrate=   7.1kbits/s speed=0.0777x elapsed=0:00:10.29    \nframe=   29 fps=2.7 q=20.0 size=       1KiB time=00:00:00.90 bitrate=   6.3kbits/s speed=0.0827x elapsed=0:00:10.88    \nframe=   31 fps=2.7 q=23.0 size=       1KiB time=00:00:00.96 bitrate=   5.9kbits/s speed=0.0844x elapsed=0:00:11.45    \nframe=   33 fps=2.7 q=16.0 size=       1KiB time=00:00:01.06 bitrate=   5.3kbits/s speed=0.0886x elapsed=0:00:12.03    \nframe=   35 fps=2.8 q=24.0 size=       1KiB time=00:00:01.13 bitrate=   5.0kbits/s speed=0.0901x elapsed=0:00:12.58    \nframe=   38 fps=2.9 q=26.0 size=       1KiB time=00:00:01.23 bitrate=   4.6kbits/s speed=0.0936x elapsed=0:00:13.17    \nframe=   39 fps=2.8 q=24.0 size=       1KiB time=00:00:01.26 bitrate=   4.5kbits/s speed=0.0918x elapsed=0:00:13.80    \nframe=   43 fps=3.0 q=24.0 size=       1KiB time=00:00:01.36 bitrate=   4.2kbits/s speed=0.0948x elapsed=0:00:14.42    \nframe=   44 fps=2.9 q=28.0 size=       1KiB time=00:00:01.43 bitrate=   4.0kbits/s speed=0.0954x elapsed=0:00:15.03    \nframe=   49 fps=3.1 q=14.0 size=       1KiB time=00:00:01.60 bitrate=   3.6kbits/s speed=0.103x elapsed=0:00:15.56    \nframe=   51 fps=3.2 q=27.0 size=       1KiB time=00:00:01.66 bitrate=   3.4kbits/s speed=0.104x elapsed=0:00:16.09    \nframe=   57 fps=3.4 q=21.0 size=       1KiB time=00:00:01.86 bitrate=   3.1kbits/s speed=0.112x elapsed=0:00:16.63    \nframe=   57 fps=3.3 q=21.0 size=       1KiB time=00:00:01.86 bitrate=   3.1kbits/s speed=0.108x elapsed=0:00:17.21    \nframe=   61 fps=3.4 q=23.0 size=       1KiB time=00:00:02.00 bitrate=   2.9kbits/s speed=0.112x elapsed=0:00:17.84    \nframe=   65 fps=3.5 q=16.0 size=       1KiB time=00:00:02.13 bitrate=   2.7kbits/s speed=0.116x elapsed=0:00:18.38    \nframe=   69 fps=3.6 q=26.0 size=       1KiB time=00:00:02.26 bitrate=   2.5kbits/s speed=0.12x elapsed=0:00:18.93    \nframe=   73 fps=3.8 q=23.0 size=       1KiB time=00:00:02.40 bitrate=   2.4kbits/s speed=0.123x elapsed=0:00:19.46    \nframe=   77 fps=3.9 q=25.0 size=       1KiB time=00:00:02.46 bitrate=   2.3kbits/s speed=0.123x elapsed=0:00:19.99    \nframe=   81 fps=3.9 q=18.0 size=       1KiB time=00:00:02.66 bitrate=   2.1kbits/s speed=0.13x elapsed=0:00:20.55    \nframe=   85 fps=4.0 q=28.0 size=       1KiB time=00:00:02.80 bitrate=   2.0kbits/s speed=0.133x elapsed=0:00:21.09    \nframe=   89 fps=4.1 q=25.0 size=       1KiB time=00:00:02.93 bitrate=   1.9kbits/s speed=0.136x elapsed=0:00:21.62    \nframe=   93 fps=4.2 q=28.0 size=       1KiB time=00:00:03.06 bitrate=   1.9kbits/s speed=0.139x elapsed=0:00:22.14    \nframe=   99 fps=4.4 q=30.0 size=       1KiB time=00:00:03.26 bitrate=   1.7kbits/s speed=0.144x elapsed=0:00:22.68    \nframe=  105 fps=4.5 q=28.0 size=    5120KiB time=00:00:03.46 bitrate=12099.0kbits/s speed=0.149x elapsed=0:00:23.20    \nframe=  107 fps=4.5 q=28.0 size=    5120KiB time=00:00:03.46 bitrate=12099.0kbits/s speed=0.146x elapsed=0:00:23.73    \nframe=  111 fps=4.6 q=28.0 size=    5120KiB time=00:00:03.66 bitrate=11439.0kbits/s speed=0.151x elapsed=0:00:24.26    \nframe=  117 fps=4.7 q=28.0 size=    5120KiB time=00:00:03.86 bitrate=10847.3kbits/s speed=0.156x elapsed=0:00:24.77    \nframe=  121 fps=4.8 q=26.0 size=    5120KiB time=00:00:04.00 bitrate=10485.8kbits/s speed=0.158x elapsed=0:00:25.29    \nframe=  123 fps=4.8 q=28.0 size=    5120KiB time=00:00:04.06 bitrate=10313.9kbits/s speed=0.157x elapsed=0:00:25.82    \nframe=  127 fps=4.8 q=29.0 size=    5120KiB time=00:00:04.13 bitrate=10147.5kbits/s speed=0.157x elapsed=0:00:26.33    \nframe=  133 fps=5.0 q=29.0 size=    5120KiB time=00:00:04.40 bitrate=9532.5kbits/s speed=0.164x elapsed=0:00:26.85    \nframe=  137 fps=5.0 q=27.0 size=    5120KiB time=00:00:04.53 bitrate=9252.1kbits/s speed=0.166x elapsed=0:00:27.37    \nframe=  139 fps=5.0 q=29.0 size=    5120KiB time=00:00:04.60 bitrate=9118.1kbits/s speed=0.165x elapsed=0:00:27.88    \nframe=  143 fps=5.0 q=29.0 size=    5120KiB time=00:00:04.73 bitrate=8861.2kbits/s speed=0.167x elapsed=0:00:28.40    \n[out#0/matroska @ 000001d5e4e50c40] video:7317KiB audio:0KiB subtitle:0KiB other streams:0KiB global headers:0KiB muxing overhead: 0.020381%\nframe=  150 fps=5.3 q=29.0 Lsize=    7318KiB time=00:00:04.96 bitrate=12070.4kbits/s speed=0.174x elapsed=0:00:28.48    \n",
  "seconds": 29.13741397857666,
  "probe_out": {}
}